<mxfile host="app.diagrams.net" agent="Mozilla/5.0 (Windows NT 10.0; Win64; x64) AppleWebKit/537.36 (KHTML, like Gecko) Chrome/136.0.0.0 Safari/537.36" version="27.0.6">
  <diagram name="第 1 页" id="YZtYKEJDeRxNnowIi0gA">
    <mxGraphModel dx="2066" dy="1103" grid="1" gridSize="10" guides="1" tooltips="1" connect="1" arrows="1" fold="1" page="1" pageScale="1" pageWidth="2339" pageHeight="3300" math="0" shadow="0">
      <root>
        <mxCell id="0" />
        <mxCell id="1" parent="0" />
        <mxCell id="6cpK3egLz_D1FLdjJSna-1" value="" style="rounded=0;whiteSpace=wrap;html=1;" parent="1" vertex="1">
          <mxGeometry x="440" y="240" width="310" height="50" as="geometry" />
        </mxCell>
        <mxCell id="6cpK3egLz_D1FLdjJSna-2" value="" style="rounded=0;whiteSpace=wrap;html=1;" parent="1" vertex="1">
          <mxGeometry x="750" y="240" width="140" height="50" as="geometry" />
        </mxCell>
        <mxCell id="6cpK3egLz_D1FLdjJSna-3" value="" style="rounded=0;whiteSpace=wrap;html=1;" parent="1" vertex="1">
          <mxGeometry x="890" y="240" width="140" height="50" as="geometry" />
        </mxCell>
        <mxCell id="6cpK3egLz_D1FLdjJSna-5" value="Tag" style="text;html=1;align=center;verticalAlign=middle;whiteSpace=wrap;rounded=0;" parent="1" vertex="1">
          <mxGeometry x="565" y="250" width="60" height="30" as="geometry" />
        </mxCell>
        <mxCell id="6cpK3egLz_D1FLdjJSna-6" value="set" style="text;html=1;align=center;verticalAlign=middle;whiteSpace=wrap;rounded=0;" parent="1" vertex="1">
          <mxGeometry x="790" y="250" width="60" height="30" as="geometry" />
        </mxCell>
        <mxCell id="6cpK3egLz_D1FLdjJSna-7" value="offset" style="text;html=1;align=center;verticalAlign=middle;whiteSpace=wrap;rounded=0;" parent="1" vertex="1">
          <mxGeometry x="930" y="250" width="60" height="30" as="geometry" />
        </mxCell>
        <mxCell id="6cpK3egLz_D1FLdjJSna-8" value="" style="shape=flexArrow;endArrow=classic;html=1;rounded=0;" parent="1" edge="1">
          <mxGeometry width="50" height="50" relative="1" as="geometry">
            <mxPoint x="750" y="320" as="sourcePoint" />
            <mxPoint x="750" y="380" as="targetPoint" />
          </mxGeometry>
        </mxCell>
        <mxCell id="6cpK3egLz_D1FLdjJSna-9" value="" style="rounded=0;whiteSpace=wrap;html=1;" parent="1" vertex="1">
          <mxGeometry x="440" y="410" width="400" height="50" as="geometry" />
        </mxCell>
        <mxCell id="6cpK3egLz_D1FLdjJSna-10" value="" style="rounded=0;whiteSpace=wrap;html=1;" parent="1" vertex="1">
          <mxGeometry x="840" y="410" width="50" height="50" as="geometry" />
        </mxCell>
        <mxCell id="6cpK3egLz_D1FLdjJSna-11" value="" style="rounded=0;whiteSpace=wrap;html=1;" parent="1" vertex="1">
          <mxGeometry x="890" y="410" width="140" height="50" as="geometry" />
        </mxCell>
        <mxCell id="6cpK3egLz_D1FLdjJSna-12" value="Tag" style="text;html=1;align=center;verticalAlign=middle;whiteSpace=wrap;rounded=0;" parent="1" vertex="1">
          <mxGeometry x="520" y="420" width="60" height="30" as="geometry" />
        </mxCell>
        <mxCell id="6cpK3egLz_D1FLdjJSna-14" value="offset" style="text;html=1;align=center;verticalAlign=middle;whiteSpace=wrap;rounded=0;" parent="1" vertex="1">
          <mxGeometry x="930" y="420" width="60" height="30" as="geometry" />
        </mxCell>
        <mxCell id="6cpK3egLz_D1FLdjJSna-15" value="" style="rounded=0;whiteSpace=wrap;html=1;" parent="1" vertex="1">
          <mxGeometry x="640" y="410" width="50" height="50" as="geometry" />
        </mxCell>
        <mxCell id="6cpK3egLz_D1FLdjJSna-13" value="set" style="text;html=1;align=center;verticalAlign=middle;whiteSpace=wrap;rounded=0;" parent="1" vertex="1">
          <mxGeometry x="635" y="420" width="60" height="30" as="geometry" />
        </mxCell>
        <mxCell id="6cpK3egLz_D1FLdjJSna-17" value="set" style="text;html=1;align=center;verticalAlign=middle;whiteSpace=wrap;rounded=0;" parent="1" vertex="1">
          <mxGeometry x="835" y="420" width="60" height="30" as="geometry" />
        </mxCell>
        <mxCell id="6cpK3egLz_D1FLdjJSna-18" value="Tag" style="text;html=1;align=center;verticalAlign=middle;whiteSpace=wrap;rounded=0;" parent="1" vertex="1">
          <mxGeometry x="720" y="420" width="100" height="30" as="geometry" />
        </mxCell>
        <mxCell id="kuAoeS0q1BrMDJ7E3NCL-1" value="" style="rounded=0;whiteSpace=wrap;html=1;" vertex="1" parent="1">
          <mxGeometry x="610" y="710" width="200" height="50" as="geometry" />
        </mxCell>
        <mxCell id="kuAoeS0q1BrMDJ7E3NCL-2" value="" style="rounded=0;whiteSpace=wrap;html=1;" vertex="1" parent="1">
          <mxGeometry x="810" y="710" width="80" height="50" as="geometry" />
        </mxCell>
        <mxCell id="kuAoeS0q1BrMDJ7E3NCL-3" value="" style="rounded=0;whiteSpace=wrap;html=1;" vertex="1" parent="1">
          <mxGeometry x="890" y="710" width="140" height="50" as="geometry" />
        </mxCell>
        <mxCell id="kuAoeS0q1BrMDJ7E3NCL-4" value="inner slice data index" style="text;html=1;align=center;verticalAlign=middle;whiteSpace=wrap;rounded=0;" vertex="1" parent="1">
          <mxGeometry x="640" y="720" width="140" height="30" as="geometry" />
        </mxCell>
        <mxCell id="kuAoeS0q1BrMDJ7E3NCL-5" value="slice idx" style="text;html=1;align=center;verticalAlign=middle;whiteSpace=wrap;rounded=0;" vertex="1" parent="1">
          <mxGeometry x="820" y="720" width="60" height="30" as="geometry" />
        </mxCell>
        <mxCell id="kuAoeS0q1BrMDJ7E3NCL-6" value="block offset" style="text;html=1;align=center;verticalAlign=middle;whiteSpace=wrap;rounded=0;" vertex="1" parent="1">
          <mxGeometry x="930" y="720" width="60" height="30" as="geometry" />
        </mxCell>
        <mxCell id="kuAoeS0q1BrMDJ7E3NCL-7" value="# 6" style="text;html=1;align=center;verticalAlign=middle;whiteSpace=wrap;rounded=0;" vertex="1" parent="1">
          <mxGeometry x="930" y="680" width="60" height="30" as="geometry" />
        </mxCell>
        <mxCell id="kuAoeS0q1BrMDJ7E3NCL-8" value="# 2" style="text;html=1;align=center;verticalAlign=middle;whiteSpace=wrap;rounded=0;" vertex="1" parent="1">
          <mxGeometry x="820" y="680" width="60" height="30" as="geometry" />
        </mxCell>
        <mxCell id="kuAoeS0q1BrMDJ7E3NCL-9" value="# log2(#data set)" style="text;html=1;align=center;verticalAlign=middle;whiteSpace=wrap;rounded=0;" vertex="1" parent="1">
          <mxGeometry x="650" y="680" width="120" height="30" as="geometry" />
        </mxCell>
        <mxCell id="kuAoeS0q1BrMDJ7E3NCL-10" value="" style="rounded=0;whiteSpace=wrap;html=1;" vertex="1" parent="1">
          <mxGeometry x="390" y="710" width="220" height="50" as="geometry" />
        </mxCell>
        <mxCell id="kuAoeS0q1BrMDJ7E3NCL-11" value="inner slice data tag" style="text;html=1;align=center;verticalAlign=middle;whiteSpace=wrap;rounded=0;" vertex="1" parent="1">
          <mxGeometry x="430" y="720" width="140" height="30" as="geometry" />
        </mxCell>
        <mxCell id="kuAoeS0q1BrMDJ7E3NCL-12" value="# pa - (remains)" style="text;html=1;align=center;verticalAlign=middle;whiteSpace=wrap;rounded=0;" vertex="1" parent="1">
          <mxGeometry x="445" y="680" width="120" height="30" as="geometry" />
        </mxCell>
      </root>
    </mxGraphModel>
  </diagram>
</mxfile>
